<?xml version="1.0" encoding="UTF-8" standalone="no"?>
<svg
   version="1.0"
   width="6396pt"
   height="398pt"
   viewBox="0 0 6396 398"
   preserveAspectRatio="xMidYMid meet"
   id="svg8"
   sodipodi:docname="KeyBoard.svg"
   inkscape:version="1.1.1 (3bf5ae0d25, 2021-09-20)"
   xmlns:inkscape="http://www.inkscape.org/namespaces/inkscape"
   xmlns:sodipodi="http://sodipodi.sourceforge.net/DTD/sodipodi-0.dtd"
   xmlns="http://www.w3.org/2000/svg"
   xmlns:svg="http://www.w3.org/2000/svg">
  <defs
     id="defs12" />
  <sodipodi:namedview
     id="namedview10"
     pagecolor="#ffffff"
     bordercolor="#999999"
     borderopacity="1"
     inkscape:pageshadow="0"
     inkscape:pageopacity="0"
     inkscape:pagecheckerboard="0"
     inkscape:document-units="pt"
     showgrid="false"
     inkscape:zoom="0.094921875"
     inkscape:cx="4303.5391"
     inkscape:cy="142.22222"
     inkscape:window-width="1920"
     inkscape:window-height="1001"
     inkscape:window-x="-9"
     inkscape:window-y="-9"
     inkscape:window-maximized="1"
     inkscape:current-layer="svg8" />
  <metadata
     id="metadata2">
Created by potrace 1.15, written by Peter Selinger 2001-2017
</metadata>
  <g
     transform="matrix(0.1,0,0,-0.1,0,520)"
     fill="#1c1f21"
     stroke="none"
     id="g6">
    <path
       d="M 3203,5193 0,5190 V 3195 1200 h 3194 c 2119,0 3197,3 3201,10 4,7 1083,10 3206,10 h 3199 v 1990 1990 l -3197,-2 c -1759,-2 -4639,-4 -6400,-5 z M 7090,4050 V 2920 h 105 105 v -840 -840 h -440 -440 v 1970 1970 h 335 335 z m 910,0 V 2920 h 110 110 v -840 -840 h -437 -438 l 2,837 3,838 104,3 103,3 7,37 c 3,20 6,529 6,1130 v 1092 h 215 215 z M 9120,3210 V 1240 h -427 -428 l 2,837 3,838 100,3 c 99,3 100,3 100,27 0,16 6,25 15,25 13,0 15,129 15,1105 v 1105 h 310 310 z m 700,840 V 2920 h 105 105 v -840 -840 h -430 -430 v 1970 1970 h 325 325 z m 912,-7 3,-1138 103,-3 102,-3 v -829 -830 h -430 -430 v 840 840 h 120 120 v 1105 c 0,976 -2,1105 -15,1105 -9,0 -15,9 -15,25 v 25 h 220 220 z m 918,7 V 2921 l 105,-3 105,-3 3,-838 2,-837 h -437 -438 v 830 830 h 115 115 v 1105 c 0,730 -3,1105 -10,1105 -5,0 -10,16 -10,35 v 35 h 225 225 z m 1130,-840 V 1240 h -435 -435 v 840 840 h 110 110 l -2,1130 -3,1130 h 328 327 z M 690,4035 V 2900 H 790 890 V 2060 1220 H 455 20 v 1975 1975 h 335 335 z m 910,-1 V 2899 l 105,3 105,3 v -843 -842 l -432,2 -433,3 -3,838 -2,837 h 110 c 91,0 110,3 110,15 0,8 7,15 15,15 13,0 15,129 15,1100 0,971 -2,1100 -15,1100 -8,0 -15,9 -15,20 0,19 7,20 220,20 h 220 z M 2720,3195 V 1220 h -430 -430 l 2,841 3,840 100,2 c 95,2 100,3 103,25 2,12 8,22 13,22 5,0 9,430 9,1104 0,874 -3,1105 -12,1109 -7,3 134,6 315,6 l 327,1 z m 700,845 V 2910 h 105 105 v -845 -845 h -430 -430 v 1975 1975 h 325 325 z m 900,-5 V 2900 h 108 107 l -2,-837 -3,-838 -425,-3 -425,-2 v 845 845 h 105 c 98,0 105,1 105,20 0,11 5,20 10,20 16,0 14,2207 -2,2213 -7,3 85,6 205,6 l 217,1 z m 922,3 3,-1133 h 107 108 v -843 -842 l -437,2 -438,3 -3,838 -2,837 h 102 c 102,0 103,0 116,27 16,35 18,2213 2,2213 -5,0 -10,7 -10,15 0,13 32,15 225,15 h 225 z m 1136,-840 -3,-1973 -433,-3 -432,-2 2,841 3,841 h 98 c 76,0 97,3 97,13 0,8 6,18 13,22 18,12 18,2194 0,2206 -37,23 6,27 322,27 h 335 z"
       id="path4" />
  </g>
  <g
     transform="matrix(0.1,0,0,-0.1,1280,519)"
     fill="#1c1f21"
     stroke="none"
     id="g831">
    <path
       d="M 3203,5193 0,5190 V 3195 1200 h 3194 c 2119,0 3197,3 3201,10 4,7 1083,10 3206,10 h 3199 v 1990 1990 l -3197,-2 c -1759,-2 -4639,-4 -6400,-5 z M 7090,4050 V 2920 h 105 105 v -840 -840 h -440 -440 v 1970 1970 h 335 335 z m 910,0 V 2920 h 110 110 v -840 -840 h -437 -438 l 2,837 3,838 104,3 103,3 7,37 c 3,20 6,529 6,1130 v 1092 h 215 215 z M 9120,3210 V 1240 h -427 -428 l 2,837 3,838 100,3 c 99,3 100,3 100,27 0,16 6,25 15,25 13,0 15,129 15,1105 v 1105 h 310 310 z m 700,840 V 2920 h 105 105 v -840 -840 h -430 -430 v 1970 1970 h 325 325 z m 912,-7 3,-1138 103,-3 102,-3 v -829 -830 h -430 -430 v 840 840 h 120 120 v 1105 c 0,976 -2,1105 -15,1105 -9,0 -15,9 -15,25 v 25 h 220 220 z m 918,7 V 2921 l 105,-3 105,-3 3,-838 2,-837 h -437 -438 v 830 830 h 115 115 v 1105 c 0,730 -3,1105 -10,1105 -5,0 -10,16 -10,35 v 35 h 225 225 z m 1130,-840 V 1240 h -435 -435 v 840 840 h 110 110 l -2,1130 -3,1130 h 328 327 z M 690,4035 V 2900 H 790 890 V 2060 1220 H 455 20 v 1975 1975 h 335 335 z m 910,-1 V 2899 l 105,3 105,3 v -843 -842 l -432,2 -433,3 -3,838 -2,837 h 110 c 91,0 110,3 110,15 0,8 7,15 15,15 13,0 15,129 15,1100 0,971 -2,1100 -15,1100 -8,0 -15,9 -15,20 0,19 7,20 220,20 h 220 z M 2720,3195 V 1220 h -430 -430 l 2,841 3,840 100,2 c 95,2 100,3 103,25 2,12 8,22 13,22 5,0 9,430 9,1104 0,874 -3,1105 -12,1109 -7,3 134,6 315,6 l 327,1 z m 700,845 V 2910 h 105 105 v -845 -845 h -430 -430 v 1975 1975 h 325 325 z m 900,-5 V 2900 h 108 107 l -2,-837 -3,-838 -425,-3 -425,-2 v 845 845 h 105 c 98,0 105,1 105,20 0,11 5,20 10,20 16,0 14,2207 -2,2213 -7,3 85,6 205,6 l 217,1 z m 922,3 3,-1133 h 107 108 v -843 -842 l -437,2 -438,3 -3,838 -2,837 h 102 c 102,0 103,0 116,27 16,35 18,2213 2,2213 -5,0 -10,7 -10,15 0,13 32,15 225,15 h 225 z m 1136,-840 -3,-1973 -433,-3 -432,-2 2,841 3,841 h 98 c 76,0 97,3 97,13 0,8 6,18 13,22 18,12 18,2194 0,2206 -37,23 6,27 322,27 h 335 z"
       id="path829" />
  </g>
  <g
     transform="matrix(0.1,0,0,-0.1,2558,520)"
     fill="#1c1f21"
     stroke="none"
     id="g827">
    <path
       d="M 3203,5193 0,5190 V 3195 1200 h 3194 c 2119,0 3197,3 3201,10 4,7 1083,10 3206,10 h 3199 v 1990 1990 l -3197,-2 c -1759,-2 -4639,-4 -6400,-5 z M 7090,4050 V 2920 h 105 105 v -840 -840 h -440 -440 v 1970 1970 h 335 335 z m 910,0 V 2920 h 110 110 v -840 -840 h -437 -438 l 2,837 3,838 104,3 103,3 7,37 c 3,20 6,529 6,1130 v 1092 h 215 215 z M 9120,3210 V 1240 h -427 -428 l 2,837 3,838 100,3 c 99,3 100,3 100,27 0,16 6,25 15,25 13,0 15,129 15,1105 v 1105 h 310 310 z m 700,840 V 2920 h 105 105 v -840 -840 h -430 -430 v 1970 1970 h 325 325 z m 912,-7 3,-1138 103,-3 102,-3 v -829 -830 h -430 -430 v 840 840 h 120 120 v 1105 c 0,976 -2,1105 -15,1105 -9,0 -15,9 -15,25 v 25 h 220 220 z m 918,7 V 2921 l 105,-3 105,-3 3,-838 2,-837 h -437 -438 v 830 830 h 115 115 v 1105 c 0,730 -3,1105 -10,1105 -5,0 -10,16 -10,35 v 35 h 225 225 z m 1130,-840 V 1240 h -435 -435 v 840 840 h 110 110 l -2,1130 -3,1130 h 328 327 z M 690,4035 V 2900 H 790 890 V 2060 1220 H 455 20 v 1975 1975 h 335 335 z m 910,-1 V 2899 l 105,3 105,3 v -843 -842 l -432,2 -433,3 -3,838 -2,837 h 110 c 91,0 110,3 110,15 0,8 7,15 15,15 13,0 15,129 15,1100 0,971 -2,1100 -15,1100 -8,0 -15,9 -15,20 0,19 7,20 220,20 h 220 z M 2720,3195 V 1220 h -430 -430 l 2,841 3,840 100,2 c 95,2 100,3 103,25 2,12 8,22 13,22 5,0 9,430 9,1104 0,874 -3,1105 -12,1109 -7,3 134,6 315,6 l 327,1 z m 700,845 V 2910 h 105 105 v -845 -845 h -430 -430 v 1975 1975 h 325 325 z m 900,-5 V 2900 h 108 107 l -2,-837 -3,-838 -425,-3 -425,-2 v 845 845 h 105 c 98,0 105,1 105,20 0,11 5,20 10,20 16,0 14,2207 -2,2213 -7,3 85,6 205,6 l 217,1 z m 922,3 3,-1133 h 107 108 v -843 -842 l -437,2 -438,3 -3,838 -2,837 h 102 c 102,0 103,0 116,27 16,35 18,2213 2,2213 -5,0 -10,7 -10,15 0,13 32,15 225,15 h 225 z m 1136,-840 -3,-1973 -433,-3 -432,-2 2,841 3,841 h 98 c 76,0 97,3 97,13 0,8 6,18 13,22 18,12 18,2194 0,2206 -37,23 6,27 322,27 h 335 z"
       id="path825" />
  </g>
  <g
     transform="matrix(0.1,0,0,-0.1,3838,519)"
     fill="#1c1f21"
     stroke="none"
     id="g832">
    <path
       d="M 3203,5193 0,5190 V 3195 1200 h 3194 c 2119,0 3197,3 3201,10 4,7 1083,10 3206,10 h 3199 v 1990 1990 l -3197,-2 c -1759,-2 -4639,-4 -6400,-5 z M 7090,4050 V 2920 h 105 105 v -840 -840 h -440 -440 v 1970 1970 h 335 335 z m 910,0 V 2920 h 110 110 v -840 -840 h -437 -438 l 2,837 3,838 104,3 103,3 7,37 c 3,20 6,529 6,1130 v 1092 h 215 215 z M 9120,3210 V 1240 h -427 -428 l 2,837 3,838 100,3 c 99,3 100,3 100,27 0,16 6,25 15,25 13,0 15,129 15,1105 v 1105 h 310 310 z m 700,840 V 2920 h 105 105 v -840 -840 h -430 -430 v 1970 1970 h 325 325 z m 912,-7 3,-1138 103,-3 102,-3 v -829 -830 h -430 -430 v 840 840 h 120 120 v 1105 c 0,976 -2,1105 -15,1105 -9,0 -15,9 -15,25 v 25 h 220 220 z m 918,7 V 2921 l 105,-3 105,-3 3,-838 2,-837 h -437 -438 v 830 830 h 115 115 v 1105 c 0,730 -3,1105 -10,1105 -5,0 -10,16 -10,35 v 35 h 225 225 z m 1130,-840 V 1240 h -435 -435 v 840 840 h 110 110 l -2,1130 -3,1130 h 328 327 z M 690,4035 V 2900 H 790 890 V 2060 1220 H 455 20 v 1975 1975 h 335 335 z m 910,-1 V 2899 l 105,3 105,3 v -843 -842 l -432,2 -433,3 -3,838 -2,837 h 110 c 91,0 110,3 110,15 0,8 7,15 15,15 13,0 15,129 15,1100 0,971 -2,1100 -15,1100 -8,0 -15,9 -15,20 0,19 7,20 220,20 h 220 z M 2720,3195 V 1220 h -430 -430 l 2,841 3,840 100,2 c 95,2 100,3 103,25 2,12 8,22 13,22 5,0 9,430 9,1104 0,874 -3,1105 -12,1109 -7,3 134,6 315,6 l 327,1 z m 700,845 V 2910 h 105 105 v -845 -845 h -430 -430 v 1975 1975 h 325 325 z m 900,-5 V 2900 h 108 107 l -2,-837 -3,-838 -425,-3 -425,-2 v 845 845 h 105 c 98,0 105,1 105,20 0,11 5,20 10,20 16,0 14,2207 -2,2213 -7,3 85,6 205,6 l 217,1 z m 922,3 3,-1133 h 107 108 v -843 -842 l -437,2 -438,3 -3,838 -2,837 h 102 c 102,0 103,0 116,27 16,35 18,2213 2,2213 -5,0 -10,7 -10,15 0,13 32,15 225,15 h 225 z m 1136,-840 -3,-1973 -433,-3 -432,-2 2,841 3,841 h 98 c 76,0 97,3 97,13 0,8 6,18 13,22 18,12 18,2194 0,2206 -37,23 6,27 322,27 h 335 z"
       id="path830" />
  </g>
  <g
     transform="matrix(0.1,0,0,-0.1,5116,519)"
     fill="#1c1f21"
     stroke="none"
     id="g836">
    <path
       d="M 3203,5193 0,5190 V 3195 1200 h 3194 c 2119,0 3197,3 3201,10 4,7 1083,10 3206,10 h 3199 v 1990 1990 l -3197,-2 c -1759,-2 -4639,-4 -6400,-5 z M 7090,4050 V 2920 h 105 105 v -840 -840 h -440 -440 v 1970 1970 h 335 335 z m 910,0 V 2920 h 110 110 v -840 -840 h -437 -438 l 2,837 3,838 104,3 103,3 7,37 c 3,20 6,529 6,1130 v 1092 h 215 215 z M 9120,3210 V 1240 h -427 -428 l 2,837 3,838 100,3 c 99,3 100,3 100,27 0,16 6,25 15,25 13,0 15,129 15,1105 v 1105 h 310 310 z m 700,840 V 2920 h 105 105 v -840 -840 h -430 -430 v 1970 1970 h 325 325 z m 912,-7 3,-1138 103,-3 102,-3 v -829 -830 h -430 -430 v 840 840 h 120 120 v 1105 c 0,976 -2,1105 -15,1105 -9,0 -15,9 -15,25 v 25 h 220 220 z m 918,7 V 2921 l 105,-3 105,-3 3,-838 2,-837 h -437 -438 v 830 830 h 115 115 v 1105 c 0,730 -3,1105 -10,1105 -5,0 -10,16 -10,35 v 35 h 225 225 z m 1130,-840 V 1240 h -435 -435 v 840 840 h 110 110 l -2,1130 -3,1130 h 328 327 z M 690,4035 V 2900 H 790 890 V 2060 1220 H 455 20 v 1975 1975 h 335 335 z m 910,-1 V 2899 l 105,3 105,3 v -843 -842 l -432,2 -433,3 -3,838 -2,837 h 110 c 91,0 110,3 110,15 0,8 7,15 15,15 13,0 15,129 15,1100 0,971 -2,1100 -15,1100 -8,0 -15,9 -15,20 0,19 7,20 220,20 h 220 z M 2720,3195 V 1220 h -430 -430 l 2,841 3,840 100,2 c 95,2 100,3 103,25 2,12 8,22 13,22 5,0 9,430 9,1104 0,874 -3,1105 -12,1109 -7,3 134,6 315,6 l 327,1 z m 700,845 V 2910 h 105 105 v -845 -845 h -430 -430 v 1975 1975 h 325 325 z m 900,-5 V 2900 h 108 107 l -2,-837 -3,-838 -425,-3 -425,-2 v 845 845 h 105 c 98,0 105,1 105,20 0,11 5,20 10,20 16,0 14,2207 -2,2213 -7,3 85,6 205,6 l 217,1 z m 922,3 3,-1133 h 107 108 v -843 -842 l -437,2 -438,3 -3,838 -2,837 h 102 c 102,0 103,0 116,27 16,35 18,2213 2,2213 -5,0 -10,7 -10,15 0,13 32,15 225,15 h 225 z m 1136,-840 -3,-1973 -433,-3 -432,-2 2,841 3,841 h 98 c 76,0 97,3 97,13 0,8 6,18 13,22 18,12 18,2194 0,2206 -37,23 6,27 322,27 h 335 z"
       id="path834" />
  </g>
</svg>
