<?xml version="1.0" encoding="UTF-8" standalone="no"?>
<svg
   version="1.0"
   width="410pt"
   height="1114pt"
   viewBox="0 0 410 1114"
   preserveAspectRatio="xMidYMid meet"
   id="svg8"
   sodipodi:docname="music-note.svg"
   inkscape:version="1.1.1 (3bf5ae0d25, 2021-09-20)"
   xmlns:inkscape="http://www.inkscape.org/namespaces/inkscape"
   xmlns:sodipodi="http://sodipodi.sourceforge.net/DTD/sodipodi-0.dtd"
   xmlns="http://www.w3.org/2000/svg"
   xmlns:svg="http://www.w3.org/2000/svg">
  <defs
     id="defs12" />
  <sodipodi:namedview
     id="namedview10"
     pagecolor="#303538"
     bordercolor="#999999"
     borderopacity="1"
     inkscape:pageshadow="0"
     inkscape:pageopacity="0"
     inkscape:pagecheckerboard="0"
     inkscape:document-units="pt"
     showgrid="false"
     height="1279pt"
     inkscape:zoom="0.42128906"
     inkscape:cx="1000.5007"
     inkscape:cy="917.42235"
     inkscape:window-width="1920"
     inkscape:window-height="1001"
     inkscape:window-x="-9"
     inkscape:window-y="-9"
     inkscape:window-maximized="1"
     inkscape:current-layer="svg8" />
  <metadata
     id="metadata2">
Created by potrace 1.15, written by Peter Selinger 2001-2017
</metadata>
  <g
     transform="matrix(0.1,0,0,-0.1,-172.87197,1193.7548)"
     fill="#303538"
     stroke="none"
     id="g6">
    <path
       d="m 4104,11920 c -249,-81 -489,-399 -672,-890 -162,-435 -204,-853 -141,-1404 25,-220 56,-401 135,-775 52,-245 62,-307 52,-316 -397,-362 -631,-591 -826,-810 -478,-536 -765,-1061 -872,-1593 -85,-429 -65,-796 65,-1172 174,-503 569,-961 1070,-1237 259,-143 548,-239 845,-279 207,-27 526,-15 733,29 50,11 69,12 72,3 11,-32 206,-974 214,-1032 37,-266 15,-546 -61,-764 -84,-239 -234,-432 -403,-515 -144,-72 -373,-111 -589,-102 -211,9 -353,57 -447,153 l -43,44 h 74 c 354,1 638,274 657,630 6,121 -13,218 -66,325 -115,231 -327,366 -576,367 -259,1 -477,-134 -590,-367 -111,-229 -81,-518 84,-799 173,-294 445,-490 764,-551 91,-17 335,-20 442,-5 167,24 332,81 471,163 120,70 290,238 362,356 132,216 192,452 192,753 0,221 -17,327 -144,911 l -112,518 89,46 c 450,233 789,731 893,1313 28,156 26,457 -4,597 -57,264 -159,448 -371,666 -257,265 -525,417 -835,472 -79,14 -133,17 -272,13 -96,-3 -174,-4 -174,-1 0,3 -223,1038 -235,1089 -3,14 18,48 77,120 754,924 1104,1794 1075,2674 -12,354 -75,643 -196,896 -110,230 -243,379 -407,456 -61,29 -80,33 -169,35 -78,2 -113,-1 -161,-17 z m 446,-802 c 36,-19 50,-34 73,-79 45,-93 68,-200 74,-349 14,-335 -78,-683 -294,-1115 -87,-174 -140,-257 -240,-376 -68,-81 -468,-479 -482,-479 -8,0 -87,375 -106,505 -56,381 -41,699 49,1010 100,347 279,618 519,783 166,115 308,149 407,100 z M 3801,7084 c 54,-258 99,-474 99,-481 0,-6 -17,-17 -37,-24 -144,-46 -358,-185 -506,-328 -214,-207 -338,-411 -413,-682 -37,-135 -44,-345 -16,-480 69,-335 302,-613 672,-803 134,-69 309,-141 319,-130 3,3 -12,20 -34,37 -185,147 -309,271 -369,366 -65,104 -92,259 -83,494 7,203 43,340 128,485 47,78 170,200 254,250 72,43 192,92 223,92 16,0 47,-134 244,-1062 124,-585 224,-1064 222,-1066 -4,-6 -117,-34 -198,-48 -45,-8 -142,-18 -216,-21 -518,-22 -1018,186 -1335,557 -297,346 -454,758 -455,1189 0,288 68,545 209,783 92,156 161,236 687,803 148,160 320,348 383,418 63,70 116,125 118,123 3,-2 49,-215 104,-472 z m 656,-1189 c 333,-54 623,-263 763,-550 69,-141 91,-230 97,-401 7,-168 -10,-287 -63,-455 -79,-250 -169,-390 -336,-523 -77,-62 -175,-122 -184,-114 -5,5 -444,2027 -444,2046 0,16 53,15 167,-3 z"
       id="path4" />
  </g>
</svg>
