<?xml version="1.0" encoding="UTF-8" standalone="no"?>
<svg
   version="1.0"
   width="1280.000000pt"
   height="1280.000000pt"
   viewBox="0 0 1280.000000 1280.000000"
   preserveAspectRatio="xMidYMid meet"
   id="svg10"
   sodipodi:docname="music-note-2.svg"
   inkscape:version="1.1.1 (3bf5ae0d25, 2021-09-20)"
   xmlns:inkscape="http://www.inkscape.org/namespaces/inkscape"
   xmlns:sodipodi="http://sodipodi.sourceforge.net/DTD/sodipodi-0.dtd"
   xmlns="http://www.w3.org/2000/svg"
   xmlns:svg="http://www.w3.org/2000/svg">
  <defs
     id="defs14" />
  <sodipodi:namedview
     id="namedview12"
     pagecolor="#ffffff"
     bordercolor="#999999"
     borderopacity="1"
     inkscape:pageshadow="0"
     inkscape:pageopacity="0"
     inkscape:pagecheckerboard="0"
     inkscape:document-units="pt"
     showgrid="false"
     inkscape:zoom="0.29789635"
     inkscape:cx="760.33156"
     inkscape:cy="894.60645"
     inkscape:window-width="1920"
     inkscape:window-height="1001"
     inkscape:window-x="-9"
     inkscape:window-y="-9"
     inkscape:window-maximized="1"
     inkscape:current-layer="g8" />
  <metadata
     id="metadata2">
Created by potrace 1.15, written by Peter Selinger 2001-2017
</metadata>
  <g
     transform="translate(0.000000,1280.000000) scale(0.100000,-0.100000)"
     fill="#ffffff"
     stroke="none"
     id="g8">
    <path
       d="m -2746.7538,11243.605 c -66,-294 -135,-590 -143,-608 -3,-8 -5,-21 -4,-28 1,-8 -3,-19 -9,-27 -6,-7 -10,-17 -9,-21 1,-5 -1,-16 -4,-24 -3,-8 -13,-49 -21,-90 -9,-41 -50,-232 -91,-425 -42,-192 -93,-431 -115,-530 -21,-99 -54,-250 -73,-335 -19,-85 -38,-174 -42,-197 -4,-24 -11,-45 -15,-48 -5,-3 -7,-12 -4,-20 3,-8 2,-20 -2,-27 -5,-7 -9,-21 -10,-30 -1,-10 -3,-21 -4,-25 -2,-5 -4,-12 -5,-18 -1,-5 -5,-17 -8,-25 -6,-15 -39,-164 -123,-555 -25,-115 -49,-228 -55,-250 -5,-22 -17,-75 -26,-117 -10,-43 -21,-78 -25,-78 -5,0 -26,11 -48,25 -22,14 -42,25 -45,25 -4,0 -21,11 -38,24 -31,22 -259,131 -317,151 -3,1 -17,7 -32,13 -93,39 -290,67 -399,58 -100,-8 -221,-39 -284,-73 -277,-147 -429,-441 -412,-797 3,-68 13,-145 22,-176 91,-297 396,-520 765,-561 102,-11 227,-12 244,-1 6,4 19,5 29,4 10,-2 24,2 32,8 7,6 17,10 21,9 5,-1 16,0 24,3 8,3 51,18 95,33 190,63 412,201 517,320 l 44,50 58,275 c 31,151 66,302 76,335 10,34 21,88 25,120 4,33 17,101 30,150 13,50 31,124 39,165 8,41 38,183 66,315 28,132 63,294 76,360 14,66 28,127 31,135 4,8 5,19 4,24 -1,4 3,14 10,22 6,8 9,20 6,28 -3,7 -2,17 3,22 5,5 20,65 34,134 14,69 50,240 80,380 30,140 67,315 83,387 15,73 33,133 38,133 6,0 120,-79 255,-175 370,-264 801,-572 907,-647 52,-38 98,-68 104,-68 5,0 9,-4 9,-10 0,-5 4,-10 10,-10 21,0 250,-172 250,-188 0,-9 -18,-98 -40,-197 -82,-375 -151,-692 -166,-765 -8,-41 -18,-82 -21,-90 -3,-8 -5,-20 -4,-27 1,-6 -3,-14 -8,-18 -6,-3 -8,-12 -4,-20 3,-9 0,-21 -6,-29 -7,-8 -11,-18 -10,-22 1,-5 0,-16 -4,-24 -9,-25 -28,-113 -32,-155 -5,-50 -73,-352 -84,-374 -5,-9 -18,-68 -31,-131 -39,-205 -61,-300 -69,-300 -5,0 -23,11 -42,25 -97,70 -197,126 -309,173 -19,8 -46,21 -60,27 -35,17 -91,35 -126,40 -16,2 -72,11 -124,20 -112,20 -280,16 -375,-9 -82,-22 -208,-86 -277,-141 -112,-88 -196,-225 -238,-385 -28,-107 -39,-349 -20,-444 12,-59 85,-227 102,-234 4,-2 8,-10 8,-17 0,-7 13,-25 30,-38 17,-14 30,-29 30,-34 0,-8 95,-93 104,-93 3,0 27,-15 53,-34 27,-18 71,-45 98,-59 62,-30 196,-77 224,-77 11,0 22,-4 25,-9 3,-5 15,-7 25,-4 10,3 22,0 25,-6 10,-15 282,-15 291,0 4,5 17,9 28,7 12,-1 27,0 32,3 6,4 35,12 65,19 194,45 436,180 592,331 l 55,54 38,170 c 20,94 42,175 47,182 5,7 7,17 3,23 -4,6 -2,17 4,24 7,8 14,38 18,67 3,30 9,59 13,64 4,6 12,33 18,60 7,28 37,163 67,300 31,138 67,300 80,360 63,287 117.99998,522 125.99998,536 4,9 31,117 59,240 136,600 258,1139 276,1224 9,39 18,77 21,85 3,8 7,26 9,40 6,46 134,593 149,637 8,24 18,61 21,83 6,36 4,43 -22,63 -66,52 -578.99998,425 -632.99998,460 -33,21 -76,54 -98,72 -21,19 -135,104 -253,189 -118,85 -220,159 -225,163 -6,4 -26,16 -45,26 -19,10 -75,48 -125,85 -49,38 -148,108 -220,157 -531,362 -611,415 -632,415 -5,0 -31,-96 -57,-212 z m 462,-808 c 366,-266 462,-334 534,-380 39,-25 85,-58 102,-74 17,-16 42,-36 56,-45 14,-9 66,-45 115,-81 50,-37 187,-137 306,-223 l 216.99998,-156 -15,-58 c -7,-32 -16,-65 -18,-73 -2,-8 -12,-46 -20.99998,-85 -9,-38 -18,-72 -19,-73 -2,-2 -112,74 -245,170 -405,290 -425,304 -440,310 -8,4 -87,59 -175,122 -88,64 -275,198 -415,298 -140,100 -259,185 -264,189 -10,9 30,236 45,255 5,6 6,14 3,17 -9,9 3,37 16,37 6,0 104,-68 218,-150 z"
       id="path4" />
    <path
       d="M 6264.3544,7653.8866 V 3313.3968 l -92.8829,51.8001 c -216.1313,121.4624 -559.0837,180.4073 -1041.3603,180.4073 -405.4696,0 -768.0701,-69.6623 -1164.6087,-221.49 C 2904.4939,2915.0721 2223.948,2207.7331 2318.6171,1612.9253 c 71.4484,-453.6974 523.3595,-785.93244 1186.0432,-873.45674 412.6145,-53.5862 1130.6708,58.945 1623.6647,253.6418 357.2419,141.11074 791.291,410.82844 1028.8569,635.89084 160.7588,153.614 334.0211,394.7523 389.3936,546.5801 94.6691,250.0694 92.8829,185.7658 87.5243,2849.0045 -1.7862,1357.5194 1.7862,2468.5418 7.1448,2468.5418 7.1449,0 219.7038,-101.8139 473.3456,-225.0624 968.1256,-471.5594 1539.7128,-759.1391 1686.182,-848.4496 83.9519,-50.0139 180.4072,-107.1726 214.3452,-126.8209 316.1586,-180.4072 646.6073,-510.856 802.0083,-802.0081 94.669,-178.621 141.111,-339.38 171.476,-605.5251 33.9383,-287.5798 33.9383,-489.4215 -1.786,-698.408 -69.662,-409.0421 -334.022,-1046.719 -535.8637,-1295.0021 -33.9378,-41.0829 -60.7305,-78.5932 -60.7305,-85.738 0,-5.3587 51.8004,-10.7174 112.531,-10.7174 h 114.3172 l 98.242,137.5383 c 407.2553,575.1594 605.5243,1168.1811 609.0973,1818.3614 1.786,434.049 -58.944,694.8356 -257.214,1080.6569 l -107.1723,207.2003 28.579,78.5932 c 92.8823,259.0005 169.6903,721.6288 169.6903,1014.5671 0,566.2285 -248.2833,1169.9675 -700.1949,1709.4025 -176.8341,210.773 -523.3592,548.367 -791.2906,769.857 -117.8898,96.454 -230.4211,191.124 -250.0694,208.987 -46.4414,42.869 -610.8838,457.2693 -923.4705,678.7603 -460.842,326.875 -673.401,596.593 -782.3598,998.49 -39.2966,146.47 -73.2346,351.883 -75.0208,439.408 v 57.159 h -185.7658 -185.7658 z m 484.0628,2204.1831 c 164.3313,-66.091 828.8013,-396.539 1069.9396,-532.291 289.366,-160.759 684.1183,-421.545 850.2358,-560.87 325.0902,-273.2898 771.6431,-780.5734 916.3261,-1041.36 80.379,-142.8968 155.4,-359.0281 180.406,-519.7871 23.222,-142.8968 17.863,-841.3047 -5.357,-866.3116 -7.145,-5.3587 -42.87,23.2207 -78.594,67.8759 -116.103,142.8968 -492.994,505.4973 -701.9805,678.7597 -253.6418,210.7727 -534.0767,421.5455 -841.3049,632.3183 -126.8209,89.3104 -282.221,200.0554 -342.9522,250.0694 -150.0416,119.6759 -453.6972,416.1868 -530.5043,518.0007 -33.9379,46.4415 -96.4553,126.8207 -139.3243,180.4067 -230.4211,294.725 -421.5455,723.416 -476.918,1075.299 -14.2897,94.669 -23.2208,164.332 -17.8621,164.332 1.7862,0 53.5863,-21.436 117.8898,-46.442 z"
       id="path6"
       style="stroke-width:1" />
  </g>
</svg>
